<svg width="200" height="49" viewBox="0 0 200 49" fill="none" xmlns="http://www.w3.org/2000/svg">
<path d="M54.3807 41.466C51.0607 41.466 48.5157 40.898 46.7447 39.762C45.0047 38.594 44.1357 36.889 44.1357 34.648C44.1357 33.512 44.5157 32.58 45.2737 31.854C46.0647 31.097 47.0767 30.718 48.3097 30.718C49.0367 30.75 49.5897 30.938 49.9697 31.286C50.3497 31.602 50.5397 31.902 50.5397 32.186C50.5397 32.217 50.3807 32.328 50.0647 32.517C49.7487 32.707 49.4647 32.991 49.2107 33.369C48.9577 33.749 48.8307 34.269 48.8307 34.932C48.8307 36.416 49.2747 37.568 50.1597 38.389C51.0767 39.178 52.4837 39.572 54.3807 39.572C55.6777 39.572 56.8157 39.32 57.7967 38.815C58.7767 38.31 59.5197 37.647 60.0257 36.826C60.5627 35.974 60.8317 35.09 60.8317 34.174C60.8317 33.038 60.4997 32.06 59.8357 31.239C59.1908 30.4074 58.3843 29.7148 57.4647 29.203C56.5147 28.635 55.2187 27.987 53.5747 27.261C51.6777 26.409 50.1447 25.636 48.9747 24.941C47.799 24.2421 46.781 23.3071 45.9847 22.195C45.1637 21.027 44.7527 19.591 44.7527 17.886C44.7527 15.14 45.6847 13.088 47.5507 11.731C49.4487 10.373 51.9307 9.695 54.9977 9.695C57.4007 9.695 59.4877 10.2 61.2587 11.21C63.0617 12.22 63.9627 13.704 63.9627 15.66C63.9627 16.797 63.5667 17.744 62.7767 18.502C62.0177 19.228 61.0217 19.591 59.7887 19.591C59.0607 19.559 58.5077 19.385 58.1287 19.07C57.7487 18.723 57.5587 18.407 57.5587 18.123C57.5587 18.091 57.7647 17.981 58.1757 17.791C58.6187 17.602 58.9977 17.318 59.3137 16.939C59.6617 16.56 59.8357 16.039 59.8357 15.377C59.8357 14.209 59.3777 13.293 58.4607 12.63C57.5747 11.967 56.4367 11.636 55.0447 11.636C53.1167 11.636 51.6457 12.094 50.6347 13.009C49.6537 13.893 49.1637 14.998 49.1637 16.324C49.1637 17.428 49.4637 18.36 50.0647 19.117C50.6647 19.843 51.6297 20.569 52.9577 21.295C54.1093 21.9005 55.2799 22.4691 56.4677 23C58.4917 23.915 60.0887 24.752 61.2587 25.51C62.4634 26.2707 63.484 27.2896 64.2467 28.493C65.0687 29.723 65.4807 31.255 65.4807 33.085C65.4807 34.664 64.9747 36.1 63.9627 37.395C62.9827 38.657 61.6377 39.651 59.9307 40.377C58.2547 41.103 56.4047 41.466 54.3807 41.466ZM78.3937 41.088C76.2437 41.088 74.5357 40.44 73.2707 39.146C72.0057 37.852 71.3737 36.147 71.3737 34.032V25.272C71.3737 24.452 71.3417 23.852 71.2787 23.473C71.2477 23.095 71.0577 22.763 70.7087 22.479C70.3617 22.195 69.7767 22.053 68.9547 22.053C68.5747 22.053 68.2907 22.006 68.1007 21.911C67.9107 21.785 67.8167 21.516 67.8167 21.106C67.8167 20.916 67.8797 20.743 68.0067 20.586C68.1327 20.396 68.3227 20.286 68.5757 20.254C70.5677 19.969 72.2757 19.559 73.6977 19.022C74.1407 18.865 74.5037 18.77 74.7887 18.738H74.9307C75.4367 18.738 75.6907 19.038 75.6907 19.638V33.985C75.6907 35.437 76.1487 36.558 77.0657 37.347C77.9546 38.0944 79.0825 38.4975 80.2437 38.483C81.7297 38.483 82.9937 38.12 84.0377 37.394C85.0817 36.668 85.7777 35.942 86.1247 35.216V25.273C86.1247 24.452 86.0937 23.853 86.0307 23.473C85.9987 23.095 85.8087 22.763 85.4607 22.479C85.1127 22.195 84.5277 22.053 83.7057 22.053C83.3257 22.053 83.0417 22.006 82.8527 21.911C82.6627 21.785 82.5677 21.516 82.5677 21.106C82.5677 20.916 82.6307 20.743 82.7577 20.586C82.8837 20.396 83.0737 20.286 83.3267 20.254C85.3187 19.969 87.0267 19.559 88.4497 19.022C88.8917 18.865 89.2557 18.77 89.5397 18.738H89.6827C90.1887 18.738 90.4417 19.038 90.4417 19.638V36.022C90.4417 37.885 91.6907 38.816 94.1887 38.816C94.7257 38.816 94.9947 39.116 94.9947 39.716C94.9947 40.157 94.7257 40.426 94.1887 40.52L86.5517 41.041C86.3307 41.041 86.2037 40.962 86.1717 40.805C86.1417 40.678 86.1247 40.442 86.1247 40.095V37.442H86.0307C85.3048 38.1239 84.5612 38.7868 83.8007 39.43C83.2317 39.872 82.4887 40.251 81.5707 40.567C80.6857 40.914 79.6267 41.087 78.3937 41.087V41.088ZM97.5897 40.662C97.4792 40.6615 97.3703 40.6355 97.2714 40.5861C97.1726 40.5367 97.0864 40.4651 97.0197 40.377C96.8937 40.188 96.8297 39.967 96.8297 39.715C96.8617 39.305 96.9567 39.067 97.1147 39.005C97.2737 38.91 97.5577 38.862 97.9687 38.862C98.7907 38.862 99.3757 38.72 99.7237 38.436C100.072 38.152 100.262 37.82 100.293 37.442C100.357 37.062 100.388 36.463 100.388 35.642V24.799C100.388 23.979 100.357 23.379 100.293 22.999C100.262 22.621 100.072 22.289 99.7237 22.006C99.3757 21.722 98.7907 21.579 97.9687 21.579C97.5887 21.579 97.3047 21.532 97.1157 21.437C96.9257 21.311 96.8307 21.043 96.8307 20.632C96.8307 20.443 96.8937 20.269 97.0207 20.112C97.1467 19.922 97.3367 19.812 97.5897 19.78C99.6447 19.464 101.337 19.054 102.665 18.549C103.203 18.391 103.566 18.296 103.756 18.265H103.898C104.404 18.265 104.657 18.565 104.657 19.165V22.1H104.799C105.906 20.995 107.029 20.127 108.167 19.496C109.306 18.833 110.333 18.502 111.25 18.502C112.294 18.502 113.116 18.896 113.717 19.685C114.349 20.443 114.665 21.327 114.665 22.337C114.665 23.221 114.397 24.01 113.859 24.704C113.321 25.399 112.578 25.746 111.63 25.746C111.217 25.7532 110.809 25.6555 110.444 25.462C110.128 25.272 109.954 25.115 109.922 24.989C109.954 24.926 110.112 24.736 110.396 24.42C110.681 24.073 110.823 23.679 110.823 23.237C110.823 22.668 110.665 22.211 110.349 21.864C110.064 21.516 109.669 21.343 109.163 21.343C108.626 21.343 107.946 21.611 107.124 22.148C106.301 22.653 105.495 23.3 104.705 24.089V35.642C104.705 36.463 104.736 37.062 104.799 37.442C104.863 37.82 105.068 38.152 105.416 38.436C105.764 38.72 106.349 38.862 107.171 38.862H107.456C107.709 38.862 107.898 38.91 108.025 39.004C108.151 39.099 108.23 39.336 108.262 39.714C108.262 39.967 108.199 40.188 108.072 40.377C107.946 40.567 107.756 40.662 107.503 40.662C105.844 40.5719 104.184 40.5242 102.523 40.519C101.1 40.519 99.4557 40.568 97.5897 40.662ZM171.257 41.088C169.107 41.088 167.194 40.582 165.518 39.572C163.842 38.531 162.53 37.173 161.581 35.5C160.676 33.8447 160.204 31.9882 160.206 30.102C160.206 27.735 160.759 25.683 161.866 23.947C162.973 22.179 164.38 20.837 166.087 19.922C167.795 18.975 169.518 18.502 171.257 18.502C173.408 18.502 175.321 19.022 176.997 20.064C178.641 21.0407 179.986 22.449 180.886 24.136C181.822 25.7632 182.313 27.6086 182.309 29.486C182.309 31.854 181.74 33.922 180.602 35.69C179.495 37.426 178.088 38.767 176.38 39.714C174.673 40.63 172.965 41.088 171.257 41.088ZM171.257 39.336C173.408 39.336 174.973 38.42 175.953 36.589C176.965 34.759 177.471 32.391 177.471 29.487C177.471 26.772 176.949 24.563 175.906 22.857C174.894 21.122 173.344 20.254 171.257 20.254C169.076 20.254 167.495 21.154 166.514 22.953C165.534 24.752 165.044 27.103 165.044 30.008C165.044 32.722 165.55 34.964 166.562 36.731C167.574 38.468 169.139 39.336 171.257 39.336ZM194.261 41.324C192.711 41.324 191.383 40.756 190.276 39.62C189.17 38.483 188.616 36.858 188.616 34.743V20.822L185.865 20.917C185.773 20.9178 185.682 20.8967 185.599 20.8555C185.517 20.8143 185.445 20.7541 185.391 20.68C185.266 20.4987 185.2 20.2839 185.201 20.064C185.201 19.78 185.249 19.544 185.343 19.354C185.47 19.133 185.644 19.007 185.865 18.975C186.972 18.755 187.826 18.407 188.427 17.934C189.059 17.428 189.518 16.892 189.802 16.324C190.087 15.724 190.435 14.824 190.846 13.624C191.004 13.214 191.352 13.009 191.889 13.009C192.11 13.009 192.332 13.072 192.553 13.199C192.774 13.293 192.885 13.451 192.885 13.672L192.553 19.07L198.103 18.738H198.198C198.609 18.738 198.814 19.038 198.814 19.638C198.814 19.985 198.751 20.317 198.624 20.632C198.53 20.917 198.403 21.059 198.245 21.059L192.933 20.917V35.311C192.933 36.353 193.138 37.221 193.549 37.915C193.992 38.61 194.703 38.957 195.684 38.957C196.664 38.957 197.534 38.783 198.292 38.436C198.704 38.278 198.956 38.199 199.051 38.199C199.273 38.199 199.447 38.294 199.573 38.483C199.7 38.641 199.826 38.863 199.953 39.146C199.986 39.2204 200.002 39.3014 200 39.383C200 39.509 199.905 39.651 199.715 39.809C198.798 40.409 197.929 40.804 197.107 40.993C196.316 41.213 195.367 41.324 194.261 41.324ZM117.597 40.377C117.723 40.567 117.913 40.661 118.166 40.661C119.809 40.5708 121.453 40.5235 123.099 40.519C125.218 40.519 127.194 40.567 129.028 40.661C129.132 40.6634 129.235 40.6384 129.327 40.5886C129.418 40.5387 129.495 40.4658 129.55 40.377C129.676 40.187 129.739 39.967 129.739 39.714C129.708 39.336 129.629 39.099 129.502 39.004C129.407 38.91 129.218 38.862 128.933 38.862H128.648C127.605 38.862 126.862 38.783 126.419 38.625C125.976 38.468 125.676 38.183 125.518 37.773C125.36 37.331 125.281 36.621 125.281 35.643V20.915H130.309C130.419 20.9145 130.528 20.8886 130.626 20.8393C130.725 20.7901 130.811 20.7188 130.878 20.631C131.036 20.442 131.115 20.221 131.115 19.968C131.083 19.59 130.988 19.353 130.83 19.258C130.704 19.132 130.498 19.068 130.214 19.068H125.281V16.228C125.281 14.713 125.344 13.387 125.47 12.25C125.588 11.1085 125.961 10.0082 126.561 9.03C127.162 8.052 128.095 7.563 129.36 7.563C129.505 7.563 129.646 7.571 129.782 7.588C129.764 7.05753 129.799 6.5266 129.886 6.003C129.821 6.00122 129.756 6.00022 129.692 6C126.909 6.063 124.743 7.12 123.194 9.173C121.676 11.193 120.917 13.829 120.917 17.08V19.069H118.071C117.66 19.069 117.375 19.116 117.217 19.211C117.059 19.274 116.964 19.527 116.933 19.968C116.933 20.221 116.996 20.442 117.122 20.631C117.281 20.821 117.486 20.916 117.739 20.916H120.917V35.642C120.917 36.495 120.885 37.11 120.822 37.489C120.791 37.836 120.601 38.152 120.253 38.436C119.905 38.72 119.32 38.862 118.498 38.862C118.087 38.862 117.802 38.91 117.644 39.004C117.518 39.067 117.439 39.304 117.407 39.714C117.407 39.967 117.47 40.188 117.597 40.377Z" fill="#9C9C9C"/>
<path fill-rule="evenodd" clip-rule="evenodd" d="M142.952 9.86549C142.951 10.5569 142.814 11.2414 142.549 11.8799C142.284 12.5185 141.895 13.0985 141.406 13.5869C140.917 14.0754 140.336 14.4626 139.697 14.7266C139.058 14.9906 138.373 15.1261 137.682 15.1255C136.285 15.1265 134.946 14.573 133.958 13.5866C132.969 12.6003 132.413 11.2618 132.412 9.86549C132.412 9.17395 132.549 8.48928 132.814 7.85058C133.079 7.21188 133.468 6.63166 133.957 6.14303C134.446 5.65441 135.027 5.26696 135.666 5.00281C136.305 4.73865 136.99 4.60296 137.682 4.60349C138.373 4.60283 139.058 4.73843 139.697 5.00254C140.337 5.26665 140.917 5.65409 141.407 6.14274C141.896 6.63139 142.285 7.21167 142.55 7.85042C142.815 8.48918 142.951 9.17391 142.952 9.86549ZM137.682 12.4955C138.027 12.4959 138.37 12.4282 138.689 12.2962C139.009 12.1642 139.299 11.9706 139.544 11.7264C139.789 11.4821 139.983 11.1921 140.116 10.8728C140.248 10.5535 140.316 10.2112 140.317 9.86549C140.317 9.51968 140.248 9.17729 140.116 8.85788C139.983 8.53847 139.789 8.2483 139.544 8.00397C139.3 7.75963 139.009 7.56591 138.69 7.43388C138.37 7.30185 138.028 7.23409 137.682 7.23449C136.984 7.23422 136.314 7.51106 135.82 8.0042C135.326 8.49733 135.048 9.16643 135.047 9.86449C135.048 10.5627 135.326 11.2321 135.82 11.7254C136.314 12.2188 136.984 12.4958 137.682 12.4955ZM135.372 17.4145V42.7845C135.372 43.0675 135.452 43.2885 135.61 43.4465C135.768 43.6365 135.989 43.7305 136.274 43.7305C136.558 43.7305 136.795 43.6045 136.985 43.3525C137.175 43.1315 137.349 42.7995 137.507 42.3575C137.665 41.9155 137.807 41.5685 137.934 41.3155H138.171C140.226 42.8625 142.661 43.6355 145.475 43.6355C147.373 43.6355 149.159 43.1305 150.835 42.1205C152.511 41.1105 153.839 39.7375 154.82 38.0005C155.831 36.2335 156.337 34.2925 156.337 32.1775C156.337 30.0305 155.895 28.1215 155.009 26.4475C154.156 24.7435 152.97 23.4175 151.452 22.4705C149.934 21.5235 148.242 21.0505 146.377 21.0505C145.238 21.0505 144.084 21.2865 142.914 21.7605C141.776 22.2025 140.748 22.8805 139.831 23.7965H139.689V17.5005C138.269 17.869 136.775 17.8393 135.372 17.4145ZM149.697 39.4215C148.527 41.1585 146.977 42.0265 145.049 42.0265C144.037 42.0265 143.136 41.8055 142.345 41.3635C141.586 40.9215 140.969 40.4005 140.495 39.8005C140.052 39.1695 139.784 38.6005 139.689 38.0965V25.5965C141.048 24.1435 142.724 23.4175 144.717 23.4175C146.962 23.4175 148.653 24.3015 149.792 26.0695C150.93 27.8055 151.499 29.9045 151.499 32.3665C151.499 35.3025 150.899 37.6545 149.697 39.4215ZM12.6997 0.367487C13.0352 0.128459 13.4368 0 13.8487 0C14.2606 0 14.6623 0.128459 14.9977 0.367487C23.5577 6.47149 27.4377 13.7885 27.6827 24.2875C27.7957 29.3005 27.3127 33.8905 25.8417 37.8555C24.3317 41.8235 21.6487 45.4885 17.6987 48.5845C17.4528 48.7756 17.1652 48.906 16.8594 48.9651C16.5536 49.0241 16.2382 49.0102 15.9387 48.9245C14.7287 48.5775 14.5227 47.1455 13.8487 46.2535C13.1747 47.1455 12.9707 48.5765 11.7587 48.9235C11.4594 49.0091 11.1442 49.0229 10.8386 48.9638C10.5329 48.9047 10.2456 48.7744 9.99973 48.5835C6.04973 45.4885 3.36573 41.8235 1.85673 37.8555C0.386726 33.8905 -0.0972739 29.3005 0.0157261 24.2875C0.259726 13.7885 4.13973 6.47049 12.6997 0.367487ZM17.1257 44.0625C19.5977 41.7925 21.0877 39.3175 22.1397 36.4705C23.4647 32.9905 23.8467 29.1445 23.7317 24.3795C23.5417 16.1925 21.6217 10.8655 15.8087 5.91949V20.3875C18.0817 20.9715 19.1017 23.1975 19.1017 25.6475C19.1017 28.0995 18.0817 30.3255 15.8087 30.9095V42.7465C15.8087 42.7465 16.8647 43.7195 17.1257 44.0625ZM10.5377 44.0625C8.06573 41.7925 6.61073 39.3175 5.55773 36.4705C4.23373 32.9905 3.85173 29.1445 3.96773 24.3795C4.15773 16.2095 6.06673 10.8595 11.8557 5.91949V20.3875C9.58273 20.9715 8.56173 23.1975 8.56173 25.6475C8.56173 28.0995 9.58173 30.3255 11.8557 30.9095V42.7465C11.8557 42.7465 10.7897 43.7315 10.5377 44.0625ZM13.8317 23.0175C13.1336 23.017 12.4638 23.2937 11.9697 23.7869C11.4756 24.2801 11.1975 24.9493 11.1967 25.6475C11.1967 27.1015 12.3767 28.2785 13.8317 28.2785C14.5299 28.279 15.1996 28.0023 15.6938 27.5091C16.1879 27.0159 16.4659 26.3466 16.4667 25.6485C16.4667 24.1955 15.2867 23.0175 13.8317 23.0175Z" fill="#9C9C9C"/>
</svg>
