<svg width="50" height="50" viewBox="0 0 50 50" fill="none" xmlns="http://www.w3.org/2000/svg">
<path d="M11.5385 48.0769C11.5385 47.0148 12.3995 46.1538 13.4615 46.1538C14.5236 46.1538 15.3846 47.0148 15.3846 48.0769C15.3846 49.139 14.5236 50 13.4615 50C12.3995 50 11.5385 49.139 11.5385 48.0769Z" fill="#808080" fill-opacity="0.3"/>
<path d="M0 48.0769C0 47.0148 0.860991 46.1538 1.92308 46.1538C2.98516 46.1538 3.84615 47.0148 3.84615 48.0769C3.84615 49.139 2.98516 50 1.92308 50C0.860991 50 0 49.139 0 48.0769Z" fill="#808080" fill-opacity="0.3"/>
<path d="M34.6154 36.5385C34.6154 35.4764 35.4764 34.6154 36.5385 34.6154C37.6005 34.6154 38.4615 35.4764 38.4615 36.5385C38.4615 37.6005 37.6005 38.4615 36.5385 38.4615C35.4764 38.4615 34.6154 37.6005 34.6154 36.5385Z" fill="#808080" fill-opacity="0.3"/>
<path d="M23.0769 36.5385C23.0769 35.4764 23.9379 34.6154 25 34.6154C26.0621 34.6154 26.9231 35.4764 26.9231 36.5385C26.9231 37.6005 26.0621 38.4615 25 38.4615C23.9379 38.4615 23.0769 37.6005 23.0769 36.5385Z" fill="#808080" fill-opacity="0.3"/>
<path d="M11.5385 36.5385C11.5385 35.4764 12.3995 34.6154 13.4615 34.6154C14.5236 34.6154 15.3846 35.4764 15.3846 36.5385C15.3846 37.6005 14.5236 38.4615 13.4615 38.4615C12.3995 38.4615 11.5385 37.6005 11.5385 36.5385Z" fill="#808080" fill-opacity="0.3"/>
<path d="M0 36.5385C0 35.4764 0.860991 34.6154 1.92308 34.6154C2.98516 34.6154 3.84615 35.4764 3.84615 36.5385C3.84615 37.6005 2.98516 38.4615 1.92308 38.4615C0.860991 38.4615 0 37.6005 0 36.5385Z" fill="#808080" fill-opacity="0.3"/>
<path d="M34.6154 25C34.6154 23.9379 35.4764 23.0769 36.5385 23.0769C37.6005 23.0769 38.4615 23.9379 38.4615 25C38.4615 26.0621 37.6005 26.9231 36.5385 26.9231C35.4764 26.9231 34.6154 26.0621 34.6154 25Z" fill="#808080" fill-opacity="0.3"/>
<path d="M23.0769 25C23.0769 23.9379 23.9379 23.0769 25 23.0769C26.0621 23.0769 26.9231 23.9379 26.9231 25C26.9231 26.0621 26.0621 26.9231 25 26.9231C23.9379 26.9231 23.0769 26.0621 23.0769 25Z" fill="#808080" fill-opacity="0.3"/>
<path d="M11.5385 25C11.5385 23.9379 12.3995 23.0769 13.4615 23.0769C14.5236 23.0769 15.3846 23.9379 15.3846 25C15.3846 26.0621 14.5236 26.9231 13.4615 26.9231C12.3995 26.9231 11.5385 26.0621 11.5385 25Z" fill="#808080" fill-opacity="0.3"/>
<path d="M0 25C0 23.9379 0.860991 23.0769 1.92308 23.0769C2.98516 23.0769 3.84615 23.9379 3.84615 25C3.84615 26.0621 2.98516 26.9231 1.92308 26.9231C0.860991 26.9231 0 26.0621 0 25Z" fill="#808080" fill-opacity="0.3"/>
<path d="M46.1538 13.4615C46.1538 12.3995 47.0148 11.5385 48.0769 11.5385C49.139 11.5385 50 12.3995 50 13.4615C50 14.5236 49.139 15.3846 48.0769 15.3846C47.0148 15.3846 46.1538 14.5236 46.1538 13.4615Z" fill="#808080" fill-opacity="0.3"/>
<path d="M34.6154 13.4615C34.6154 12.3995 35.4764 11.5385 36.5385 11.5385C37.6005 11.5385 38.4615 12.3995 38.4615 13.4615C38.4615 14.5236 37.6005 15.3846 36.5385 15.3846C35.4764 15.3846 34.6154 14.5236 34.6154 13.4615Z" fill="#808080" fill-opacity="0.3"/>
<path d="M23.0769 13.4615C23.0769 12.3995 23.9379 11.5385 25 11.5385C26.0621 11.5385 26.9231 12.3995 26.9231 13.4615C26.9231 14.5236 26.0621 15.3846 25 15.3846C23.9379 15.3846 23.0769 14.5236 23.0769 13.4615Z" fill="#808080" fill-opacity="0.3"/>
<path d="M11.5385 13.4615C11.5385 12.3995 12.3995 11.5385 13.4615 11.5385C14.5236 11.5385 15.3846 12.3995 15.3846 13.4615C15.3846 14.5236 14.5236 15.3846 13.4615 15.3846C12.3995 15.3846 11.5385 14.5236 11.5385 13.4615Z" fill="#808080" fill-opacity="0.3"/>
<path d="M0 13.4615C0 12.3995 0.860991 11.5385 1.92308 11.5385C2.98516 11.5385 3.84615 12.3995 3.84615 13.4615C3.84615 14.5236 2.98516 15.3846 1.92308 15.3846C0.860991 15.3846 0 14.5236 0 13.4615Z" fill="#808080" fill-opacity="0.3"/>
<path d="M46.1538 1.92308C46.1538 0.860991 47.0148 0 48.0769 0C49.139 0 50 0.860991 50 1.92308C50 2.98516 49.139 3.84615 48.0769 3.84615C47.0148 3.84615 46.1538 2.98516 46.1538 1.92308Z" fill="#808080" fill-opacity="0.3"/>
<path d="M34.6154 1.92308C34.6154 0.860991 35.4764 0 36.5385 0C37.6005 0 38.4615 0.860991 38.4615 1.92308C38.4615 2.98516 37.6005 3.84615 36.5385 3.84615C35.4764 3.84615 34.6154 2.98516 34.6154 1.92308Z" fill="#808080" fill-opacity="0.3"/>
<path d="M23.0769 1.92308C23.0769 0.860991 23.9379 0 25 0C26.0621 0 26.9231 0.860991 26.9231 1.92308C26.9231 2.98516 26.0621 3.84615 25 3.84615C23.9379 3.84615 23.0769 2.98516 23.0769 1.92308Z" fill="#808080" fill-opacity="0.3"/>
<path d="M11.5385 1.92308C11.5385 0.860991 12.3995 0 13.4615 0C14.5236 0 15.3846 0.860991 15.3846 1.92308C15.3846 2.98516 14.5236 3.84615 13.4615 3.84615C12.3995 3.84615 11.5385 2.98516 11.5385 1.92308Z" fill="#808080" fill-opacity="0.3"/>
<path d="M0 1.92308C0 0.860991 0.860991 0 1.92308 0C2.98516 0 3.84615 0.860991 3.84615 1.92308C3.84615 2.98516 2.98516 3.84615 1.92308 3.84615C0.860991 3.84615 0 2.98516 0 1.92308Z" fill="#808080" fill-opacity="0.3"/>
</svg>
