<svg width="136" height="32" viewBox="0 0 136 32" fill="none" xmlns="http://www.w3.org/2000/svg">
<path d="M7.05725 12.534C7.70747 11.4593 8.5985 10.5861 9.73036 9.91436C10.8863 9.24265 12.1988 8.9068 13.6678 8.9068C15.3776 8.9068 16.9189 9.37699 18.2916 10.3174C19.6883 11.2578 20.7841 12.6012 21.5788 14.3476C22.3976 16.0672 22.807 18.0688 22.807 20.3526C22.807 22.6364 22.3976 24.665 21.5788 26.4383C20.7841 28.1847 19.6883 29.5416 18.2916 30.5088C16.9189 31.4761 15.3776 31.9597 13.6678 31.9597C12.1747 31.9597 10.8622 31.6373 9.73036 30.9924C8.62259 30.3207 7.73155 29.461 7.05725 28.4131V31.597H2V1.7733H7.05725V12.534ZM17.6413 20.3526C17.6413 19.0092 17.3885 17.8539 16.8828 16.8867C16.4011 15.8925 15.7509 15.1402 14.9321 14.6297C14.1418 14.1205 13.2438 13.8561 12.3312 13.864C11.4161 13.864 10.5492 14.1327 9.73036 14.67C8.93565 15.1805 8.28544 15.9328 7.77971 16.927C7.29807 17.9211 7.05725 19.0898 7.05725 20.4333C7.05725 21.7767 7.29807 22.9454 7.77971 23.9395C8.28544 24.9337 8.93565 25.6994 9.73036 26.2368C10.5492 26.7473 11.4161 27.0025 12.3312 27.0025C13.2704 27.0025 14.1374 26.7338 14.9321 26.1965C15.7509 25.6591 16.4011 24.8934 16.8828 23.8992C17.3885 22.9051 17.6413 21.7229 17.6413 20.3526ZM29.0462 6.60957C28.1552 6.60957 27.4087 6.30059 26.8066 5.68262C26.2286 5.03778 25.9396 4.24517 25.9396 3.30479C25.9396 2.3644 26.2286 1.58522 26.8066 0.967255C27.4087 0.322418 28.1552 0 29.0462 0C29.9373 0 30.6718 0.322418 31.2498 0.967255C31.8518 1.58522 32.1528 2.3644 32.1528 3.30479C32.1528 4.24517 31.8518 5.03778 31.2498 5.68262C30.6718 6.30059 29.9373 6.60957 29.0462 6.60957ZM31.5387 9.26952V31.597H26.4815V9.26952H31.5387ZM48.3842 31.597L41.593 22.0856V31.597H36.5358V1.7733H41.593V18.7406L48.3119 9.26952H54.8864L46.0723 20.4736L54.9586 31.597H48.3842ZM55.3269 20.4333C55.3269 18.1226 55.7483 16.1075 56.5912 14.3879C57.4341 12.6415 58.602 11.2981 60.0951 10.3577C61.5882 9.39043 63.2981 8.9068 65.2246 8.9068C67.7051 8.9068 69.7521 9.60537 71.3656 11.0025C73.0032 12.3728 74.0989 14.3073 74.6528 16.806H69.1992C68.9102 15.8388 68.4165 15.0865 67.7181 14.5491C67.0438 13.9849 66.201 13.7028 65.1895 13.7028C63.7446 13.7028 62.6007 14.2939 61.7578 15.4761C60.9149 16.6314 60.4935 18.2838 60.4935 20.4333C60.4935 22.5558 60.9149 24.2082 61.7578 25.3904C62.6007 26.5458 63.7446 27.1234 65.1895 27.1234C67.2365 27.1234 68.573 26.1024 69.1992 24.0605H74.6538C74.0999 26.4786 73.0042 28.3997 71.3666 29.8237C69.729 31.2477 67.682 31.9597 65.2256 31.9597C63.2991 31.9597 61.5892 31.4895 60.0961 30.5491C58.6149 29.5955 57.4014 28.1998 56.5922 26.5189C55.7493 24.7725 55.3279 22.7439 55.3279 20.4333H55.3269ZM82.4122 12.7355C83.0324 11.5863 83.902 10.6299 84.9409 9.95466C86.0005 9.28296 87.2046 8.9471 88.5532 8.9471V14.8715H87.2166C85.6272 14.8715 84.4231 15.288 83.6043 16.1209C82.8096 16.9538 82.4122 18.4047 82.4122 20.4736V31.597H77.355V9.26952H82.4122V12.7355ZM104.06 28.4131C103.506 29.4341 102.603 30.2939 101.351 30.9924C100.099 31.6641 98.75 32 97.305 32C96.0528 32 94.9209 31.7179 93.9095 31.1537C92.898 30.5894 92.1033 29.8102 91.5253 28.8161C90.9474 27.822 90.6584 26.6801 90.6584 25.3904C90.6584 23.3216 91.3447 21.6289 92.7174 20.3123C94.1142 18.9958 96.1973 18.3375 98.9667 18.3375H104.06C104.012 16.9135 103.639 15.7851 102.94 14.9521C102.266 14.0924 101.327 13.6625 100.123 13.6625C99.063 13.6625 98.184 13.9849 97.4857 14.6297C96.7873 15.2477 96.3418 16.1209 96.1491 17.2494H91.0919C91.3327 15.6373 91.8504 14.1998 92.6451 12.937C93.4568 11.6541 94.5518 10.6267 95.824 9.95466C97.1485 9.22922 98.6296 8.8665 100.267 8.8665C101.953 8.8665 103.47 9.25609 104.819 10.0353C106.158 10.7796 107.275 11.9417 108.034 13.3804C108.804 14.8312 109.19 16.5374 109.19 18.4987V31.597H104.06V28.4131ZM98.7861 27.4458C99.629 27.4458 100.448 27.2443 101.242 26.8413C102.061 26.4383 102.736 25.8338 103.265 25.0277C103.795 24.2217 104.06 23.2678 104.06 22.1662V22.005H99.2557C98.0997 22.005 97.2328 22.2603 96.6548 22.7708C96.1009 23.2813 95.824 23.953 95.824 24.7859C95.824 25.5919 96.0769 26.2368 96.5826 26.7204C97.1124 27.204 97.8469 27.4458 98.7861 27.4458ZM119.855 13.9043V31.597H114.725V13.9043H112.45V9.26952H114.725V8.14106C114.725 5.4005 115.424 3.38539 116.821 2.09572C118.217 0.806045 120.325 0.201511 123.142 0.282116V5.03778C121.914 5.01092 121.059 5.23929 120.577 5.72292C120.096 6.20655 119.855 7.07976 119.855 8.34257V9.26952H126.427V3.74811H131.521V9.26952H136V13.9043H131.521V24.7053C131.521 25.4576 131.677 26.0084 131.99 26.3577C132.327 26.6801 132.881 26.8413 133.652 26.8413H136V31.597H132.821C128.559 31.597 126.427 29.2863 126.427 24.665V13.9043H119.855Z" fill="white"/>
</svg>
